<svg id="visual" viewBox="0 0 900 600" width="900" height="600" xmlns="http://www.w3.org/2000/svg" xmlns:xlink="http://www.w3.org/1999/xlink" version="1.1"><rect x="0" y="0" width="900" height="600" fill="#001220"></rect><defs><linearGradient id="grad1_0" x1="33.3%" y1="0%" x2="100%" y2="100%"><stop offset="20%" stop-color="#e2c044" stop-opacity="1"></stop><stop offset="80%" stop-color="#e2c044" stop-opacity="1"></stop></linearGradient></defs><defs><linearGradient id="grad1_1" x1="33.3%" y1="0%" x2="100%" y2="100%"><stop offset="20%" stop-color="#e2c044" stop-opacity="1"></stop><stop offset="80%" stop-color="#00725e" stop-opacity="1"></stop></linearGradient></defs><defs><linearGradient id="grad1_2" x1="33.3%" y1="0%" x2="100%" y2="100%"><stop offset="20%" stop-color="#001220" stop-opacity="1"></stop><stop offset="80%" stop-color="#00725e" stop-opacity="1"></stop></linearGradient></defs><defs><linearGradient id="grad2_0" x1="0%" y1="0%" x2="66.7%" y2="100%"><stop offset="20%" stop-color="#e2c044" stop-opacity="1"></stop><stop offset="80%" stop-color="#e2c044" stop-opacity="1"></stop></linearGradient></defs><defs><linearGradient id="grad2_1" x1="0%" y1="0%" x2="66.7%" y2="100%"><stop offset="20%" stop-color="#00725e" stop-opacity="1"></stop><stop offset="80%" stop-color="#e2c044" stop-opacity="1"></stop></linearGradient></defs><defs><linearGradient id="grad2_2" x1="0%" y1="0%" x2="66.7%" y2="100%"><stop offset="20%" stop-color="#00725e" stop-opacity="1"></stop><stop offset="80%" stop-color="#001220" stop-opacity="1"></stop></linearGradient></defs><g transform="translate(900, 0)"><path d="M0 459.7C-27.3 411 -54.6 362.3 -96.8 361.3C-139 360.2 -196.2 406.7 -229.9 398.1C-263.5 389.5 -273.8 325.8 -280 280C-286.2 234.3 -288.4 206.5 -320.4 185C-352.4 163.5 -414.2 148.3 -442.4 118.5C-470.6 88.8 -465.1 44.4 -459.7 0L0 0Z" fill="#00404f"></path><path d="M0 306.5C-18.2 274 -36.4 241.6 -64.5 240.8C-92.7 240.1 -130.8 271.1 -153.2 265.4C-175.7 259.7 -182.5 217.2 -186.7 186.7C-190.8 156.2 -192.3 137.7 -213.6 123.3C-234.9 109 -276.1 98.9 -294.9 79C-313.7 59.2 -310.1 29.6 -306.5 0L0 0Z" fill="#64a04d"></path><path d="M0 153.2C-9.1 137 -18.2 120.8 -32.3 120.4C-46.3 120.1 -65.4 135.6 -76.6 132.7C-87.8 129.8 -91.3 108.6 -93.3 93.3C-95.4 78.1 -96.1 68.8 -106.8 61.7C-117.5 54.5 -138.1 49.4 -147.5 39.5C-156.9 29.6 -155 14.8 -153.2 0L0 0Z" fill="#e2c044"></path></g><g transform="translate(0, 600)"><path d="M0 -459.7C44.4 -465 88.8 -470.3 119 -444C149.1 -417.8 165 -360 191 -330.8C217 -301.6 253.1 -300.9 285 -285C316.8 -269 344.3 -237.8 352.5 -203.5C360.7 -169.2 349.5 -132 364.2 -97.6C378.8 -63.2 419.3 -31.6 459.7 0L0 0Z" fill="#00404f"></path><path d="M0 -306.5C29.6 -310 59.2 -313.5 79.3 -296C99.4 -278.5 110 -240 127.3 -220.5C144.7 -201.1 168.8 -200.6 190 -190C211.2 -179.3 229.5 -158.5 235 -135.7C240.4 -112.8 233 -88 242.8 -65C252.5 -42.1 279.5 -21.1 306.5 0L0 0Z" fill="#64a04d"></path><path d="M0 -153.2C14.8 -155 29.6 -156.8 39.7 -148C49.7 -139.3 55 -120 63.7 -110.3C72.3 -100.5 84.4 -100.3 95 -95C105.6 -89.7 114.8 -79.3 117.5 -67.8C120.2 -56.4 116.5 -44 121.4 -32.5C126.3 -21.1 139.8 -10.5 153.2 0L0 0Z" fill="#e2c044"></path></g></svg>